<svg xmlns="http://www.w3.org/2000/svg" viewBox="0 0 64 64" width="64" height="64" role="img" aria-label="Krona taxonomy chart"><rect width="64" height="64" rx="12" fill="#fbfaf8"/><g><circle cx="32.0" cy="32.0" r="8.5" fill="#3f7d7b"/><path d="M32.30,15.00 A17,17 0 0 1 49.00,31.70 L41.50,31.83 A9.5,9.5 0 0 0 32.17,22.50 Z" fill="#4c8c8a"/><path d="M49.00,32.30 A17,17 0 0 1 32.30,49.00 L32.17,41.50 A9.5,9.5 0 0 0 41.50,32.17 Z" fill="#6baa75"/><path d="M31.70,49.00 A17,17 0 0 1 15.00,32.30 L22.50,32.17 A9.5,9.5 0 0 0 31.83,41.50 Z" fill="#d8b26e"/><path d="M15.00,31.70 A17,17 0 0 1 31.70,15.00 L31.83,22.50 A9.5,9.5 0 0 0 22.50,31.83 Z" fill="#c88f7a"/><path d="M40.63,6.94 A26.5,26.5 0 0 1 56.64,22.26 L48.74,25.38 A18,18 0 0 0 37.86,14.98 Z" fill="#c88f7a"/><path d="M56.97,23.12 A26.5,26.5 0 0 1 54.98,45.19 L47.61,40.96 A18,18 0 0 0 48.96,25.97 Z" fill="#5b8fb0"/><path d="M54.51,45.99 A26.5,26.5 0 0 1 36.01,58.19 L34.73,49.79 A18,18 0 0 0 47.29,41.50 Z" fill="#9b7cc8"/><path d="M35.10,58.32 A26.5,26.5 0 0 1 14.02,51.47 L19.79,45.23 A18,18 0 0 0 34.10,49.88 Z" fill="#cf8d5a"/><path d="M13.36,50.83 A26.5,26.5 0 0 1 5.57,30.09 L14.05,30.70 A18,18 0 0 0 19.34,44.79 Z" fill="#5aa6a3"/><path d="M5.65,29.16 A26.5,26.5 0 0 1 17.02,10.14 L21.82,17.15 A18,18 0 0 0 14.10,30.07 Z" fill="#4c8c8a"/><path d="M17.79,9.63 A26.5,26.5 0 0 1 39.75,6.66 L37.26,14.79 A18,18 0 0 0 22.35,16.81 Z" fill="#6baa75"/></g><circle cx="32.0" cy="32.0" r="3" fill="#fbfaf8"/></svg>